<?xml version="1.0" standalone="no"?>
<!DOCTYPE svg PUBLIC "-//W3C//DTD SVG 20010904//EN"
 "http://www.w3.org/TR/2001/REC-SVG-20010904/DTD/svg10.dtd">
<svg version="1.0" xmlns="http://www.w3.org/2000/svg"
 width="1280.000000pt" height="1005.000000pt" viewBox="0 0 1280.000000 1005.000000"
 preserveAspectRatio="xMidYMid meet">
<metadata>
Created by potrace 1.15, written by Peter Selinger 2001-2017
</metadata>
<g transform="translate(0.000000,1005.000000) scale(0.100000,-0.100000)"
fill="#000000" stroke="none">
<path d="M4079 10040 c-126 -12 -250 -37 -374 -75 -156 -47 -200 -55 -375 -65
-154 -9 -156 -10 -235 -50 -166 -83 -516 -352 -728 -559 -137 -134 -217 -235
-217 -273 0 -35 -61 -137 -104 -173 -23 -19 -51 -43 -62 -53 -32 -28 -80 -187
-139 -457 -62 -282 -67 -348 -35 -441 18 -52 21 -79 18 -229 -3 -163 -2 -172
19 -199 22 -27 22 -29 6 -64 -40 -89 -33 -120 107 -472 145 -366 162 -395 345
-574 135 -134 163 -173 184 -261 7 -27 34 -102 61 -165 57 -137 82 -220 78
-257 l-3 -28 -170 -6 c-247 -9 -293 -22 -633 -180 -303 -141 -304 -142 -387
-136 -39 2 -112 18 -164 35 -52 17 -98 29 -103 26 -10 -6 -11 -59 -2 -103 9
-44 43 -74 117 -100 67 -23 107 -46 107 -61 0 -13 -98 -154 -215 -310 -55 -74
-148 -202 -205 -285 -118 -171 -134 -192 -286 -370 -124 -145 -225 -245 -297
-294 -26 -18 -103 -59 -172 -91 -142 -67 -188 -98 -205 -140 -16 -39 0 -79 47
-120 48 -43 74 -39 119 16 49 59 117 105 282 188 166 85 207 122 380 346 75
96 161 204 192 240 82 95 143 175 270 358 62 90 136 184 164 209 67 60 160
103 325 148 169 45 227 76 339 180 107 99 134 110 251 102 120 -8 401 -80 470
-120 69 -41 161 -130 161 -155 0 -38 -105 -178 -225 -297 -66 -66 -131 -126
-145 -132 -14 -7 -46 -21 -72 -32 -42 -17 -48 -24 -48 -49 0 -17 12 -45 30
-67 17 -21 30 -40 30 -42 0 -3 -23 -30 -51 -61 -58 -63 -163 -270 -220 -431
-40 -115 -96 -209 -226 -383 -108 -144 -162 -199 -217 -222 -36 -15 -38 -20
-51 -100 -8 -50 -40 -81 -140 -136 -97 -52 -125 -76 -125 -106 0 -29 99 -137
141 -155 28 -11 33 -10 45 6 8 10 14 33 14 49 0 82 83 138 200 137 96 -1 112
7 133 67 9 28 35 77 58 109 99 142 151 228 224 363 71 133 101 180 185 295 16
22 58 102 92 179 35 76 74 150 88 164 46 46 220 161 274 181 30 11 82 27 117
36 146 38 279 119 358 220 24 30 49 55 55 55 18 0 341 -127 434 -171 82 -38
169 -95 245 -161 l38 -33 -52 -110 c-71 -151 -134 -300 -225 -527 -90 -227
-119 -286 -190 -391 -55 -82 -62 -97 -89 -217 -33 -145 -199 -527 -255 -587
-36 -39 -111 -85 -214 -131 -123 -55 -193 -97 -207 -124 -13 -23 1 -38 37 -38
26 0 57 -34 78 -83 17 -43 26 -45 52 -16 30 33 106 85 144 98 19 7 84 16 143
21 60 4 113 12 119 18 6 6 14 32 19 58 5 26 44 131 88 233 43 102 94 229 112
281 49 141 276 585 351 688 144 199 245 386 297 552 58 183 60 189 88 196 15
4 39 0 58 -9 39 -18 102 -72 116 -98 17 -33 -23 -100 -123 -209 -108 -118
-138 -158 -138 -182 0 -23 66 -88 89 -88 27 0 244 241 328 363 24 35 39 47 58
47 53 0 344 -168 359 -207 12 -29 -21 -43 -101 -43 -93 0 -133 -17 -173 -72
-50 -68 -138 -255 -165 -349 -58 -204 -127 -615 -155 -936 -11 -121 -10 -174
6 -303 11 -90 -78 -352 -131 -385 -11 -7 -76 -32 -145 -55 -153 -52 -253 -99
-302 -143 l-37 -34 62 -24 c59 -23 63 -26 78 -73 29 -88 79 -95 108 -16 29 79
132 133 323 170 79 15 96 32 113 110 7 36 36 135 64 220 107 330 111 349 122
545 5 99 14 197 20 218 7 26 38 68 100 135 110 118 143 182 165 314 l16 97
-50 131 -50 130 219 0 c248 0 342 -11 412 -47 40 -21 57 -25 102 -20 70 7 129
34 188 85 78 68 101 77 197 77 103 0 193 -31 250 -85 45 -42 80 -130 87 -216
9 -98 14 -95 -309 -157 -133 -26 -228 -63 -285 -111 -18 -15 -55 -73 -87 -134
-30 -59 -69 -120 -86 -136 -34 -31 -85 -126 -120 -223 -30 -84 -24 -130 35
-251 102 -212 233 -368 450 -535 71 -56 171 -135 220 -177 123 -103 155 -127
217 -158 54 -28 64 -40 170 -208 86 -139 276 -326 458 -452 52 -37 174 -122
270 -191 231 -166 352 -241 486 -307 204 -99 361 -141 734 -195 236 -34 325
-39 354 -22 16 9 -11 21 -170 72 -396 129 -597 220 -701 318 l-58 54 113 -5
c191 -9 407 -61 785 -188 100 -33 188 -63 195 -65 8 -4 12 7 12 33 0 33 -7 45
-54 90 -72 69 -198 130 -395 189 -182 55 -240 79 -331 140 -115 76 -218 202
-447 545 -87 130 -209 288 -277 358 -81 85 -197 135 -339 148 -92 8 -178 -7
-296 -54 l-93 -36 -22 29 c-11 17 -64 84 -116 150 -128 161 -129 161 -226 347
-117 223 -139 255 -188 280 -22 11 -70 50 -104 86 l-64 66 76 38 c84 42 170
68 228 68 27 0 46 8 72 30 38 34 194 115 241 125 17 4 38 9 49 12 10 3 45 29
77 59 58 53 60 54 121 54 197 0 323 193 262 399 -12 41 -23 57 -49 72 -71 42
-49 93 47 109 63 10 102 27 168 75 72 52 105 65 164 65 44 0 60 -5 86 -26 17
-15 37 -41 45 -60 34 -82 176 -139 345 -138 135 0 165 13 301 134 218 193 517
357 701 385 22 3 59 23 94 50 32 25 66 45 76 45 47 0 76 -29 118 -117 45 -95
98 -158 168 -199 60 -36 111 -52 244 -79 146 -30 201 -53 286 -121 64 -51 132
-84 175 -84 35 0 101 -47 123 -87 12 -21 27 -74 33 -118 17 -118 56 -191 166
-301 100 -101 238 -197 414 -288 133 -70 171 -108 268 -270 106 -178 184 -275
388 -481 169 -172 233 -207 785 -432 8 -4 -93 104 -225 238 -313 319 -439 476
-539 676 -50 101 -94 219 -84 228 8 9 225 -54 388 -112 142 -51 356 -151 445
-208 33 -21 88 -66 123 -100 73 -71 73 -70 15 85 -75 200 -166 354 -264 444
-87 81 -189 127 -380 169 -243 55 -281 80 -442 296 -235 314 -478 514 -720
592 -111 35 -214 98 -347 210 -354 299 -466 381 -621 460 -183 92 -302 114
-542 99 -202 -12 -247 -21 -348 -65 -44 -19 -88 -35 -98 -35 -29 0 -125 -76
-274 -218 -180 -172 -194 -180 -350 -198 -118 -13 -158 -23 -253 -58 -100 -37
-199 49 -329 286 -68 123 -152 226 -244 300 -44 35 -174 117 -290 183 -116 65
-227 132 -246 148 -51 42 -67 81 -76 184 -20 232 -141 301 -223 127 l-27 -57
-69 5 c-159 12 -329 153 -483 402 -96 156 -190 246 -257 246 -10 0 -33 -20
-51 -44 -88 -116 -158 -103 -389 72 -174 132 -230 189 -332 341 -51 75 -113
158 -138 185 -48 53 -124 106 -150 106 -9 0 -71 -38 -139 -84 -67 -46 -134
-87 -148 -91 -20 -5 -48 4 -109 35 -105 51 -191 135 -301 290 -162 231 -333
409 -431 451 -60 26 -69 25 -158 -21 -108 -54 -225 -144 -381 -293 -128 -121
-166 -148 -183 -130 -16 15 -30 138 -30 263 0 272 -22 386 -114 583 l-45 98
-33 -6 c-73 -12 -195 -22 -230 -17 -88 10 -70 52 57 127 50 29 107 70 127 90
42 42 216 331 252 422 14 33 30 89 36 124 12 74 13 209 3 209 -56 4 -257 41
-285 53 -43 18 -51 49 -18 67 13 7 124 11 321 10 l302 0 201 134 c110 75 235
152 276 172 90 44 117 43 295 -11 174 -54 345 -83 526 -91 l156 -7 6 39 c4 21
7 50 7 64 0 44 20 100 36 100 8 0 29 -21 47 -47 88 -127 121 -164 185 -206
118 -79 249 -115 517 -142 196 -20 262 -33 293 -60 35 -30 25 -51 -72 -153
-130 -138 -227 -296 -281 -461 -34 -103 6 -337 81 -483 69 -133 235 -277 357
-309 80 -22 80 -2 0 78 -112 110 -158 232 -157 413 1 114 15 169 60 227 43 57
72 66 249 74 231 12 289 29 378 111 52 48 135 179 168 267 37 99 11 200 -87
337 -69 97 -99 185 -153 442 -16 77 -38 157 -49 179 -45 88 -275 264 -477 366
-145 72 -262 106 -475 136 -164 24 -219 41 -285 90 -70 52 -80 57 -168 75
-199 41 -648 66 -848 46z m1789 -6233 c4 -22 -41 -67 -68 -67 -31 0 -25 34 11
65 34 28 52 28 57 2z"/>
</g>
</svg>
